<svg width="369" height="422" viewBox="0 0 369 422" xmlns="http://www.w3.org/2000/svg"><g fill-rule="nonzero" fill="none"><g fill="#FFFFFF"><path d="M167.68 92.88l.05-.16 12.97-38.84 2.42-7.28 1.22-3.63 1.21 3.63 2.43 7.28 12.95 38.76V45.93l.54-1.42 3.46-9.01 11.96-8.23h-65.13l7.74 20.18v69.9zM204.07 385.74l-2.39-5.24-.75-1.63v-52.04l-16.58-50.4-16.62 50.5-4.24 12.9-3.11 9.43-.58 1.76-.29.88h-.01v25.18l-7.74 16.88 12.82-8.22z"/><path d="M271.42 130.34l-35.41 122.83.65 30.81-9.32-27.92-.65-1.93-17.54-52.52-8.22-24.61-16.59-49.67V98.44l-16.61 49.75-8.23 24.63-17.54 52.54-9.28 27.81-.64 30.81-8.15-28.27-35.42-122.83-.86-2.95 1.1-2.86 2.42-6.3 13.31-9.15H44.01l10.23 18.72 59.22 204 6.88-9.16h19.83l1.79-5.45 17.54-53.3 8.23-25 7.92-24.08 8.7-26.42.01 29.28 16.57 50.38 8.22 24.99 12.75 38.76 4.79-6.63 1.83-2.53h19.83l57.32-197.39.27-.96.48-.87 2.83-5.19 15.42-9.15h-60.43z"/></g><g fill="#CFD4D8"><path d="M236.42 85.52v-33l.09-.22 5.84-15.3 6.42-16.74 3.38-8.81L256.56 0H112.1l4.4 11.48 3.38 8.8L126.3 37l5.84 15.24.09.22v33H0l1 1.89L7.93 100l2.07 3.83 11.1 20.31 8.9 16.22L88.39 341.6l2.87 9.91.54 1.85 1.79 6.16.26.92h38.38v10.69l-.12.26L127 382.6l-8 17.47-4.21 9.2-5.49 12h150.08l-5.48-12-4.22-9.2-8-17.47-4.12-9h22.21v-13.16h15.06l.27-.92 1.78-6.16.54-1.85 2.87-9.9 58.43-201.23 8.87-16.25 11.09-20.31 2.06-3.8 6.88-12.61 1-1.89h-132.2zm4.16 273.58h-3.3v9.81h-2.75v-9.81h-3.26v-2.3h9.31v2.3zm14.5 9.81h-2.68l-.18-4.64c0-1.13-.08-2.46-.1-3.83v-1.14h-.06c-.1.37-.19.75-.3 1.14-.32 1.22-.7 2.47-1 3.54l-1.47 4.74h-2.19l-1.3-4.72c-.3-1.1-.61-2.36-.87-3.6-.08-.38-.15-.77-.22-1.14v1.14c-.05 1.33-.09 2.7-.17 3.87l-.21 4.6h-2.63l.54-8.47.23-3.64h3.65l1.07 3.64.12.41c.38 1.38.76 2.9 1 4.33h.06c.34-1.41.75-3 1.15-4.36l.12-.38 1.17-3.64h3.58l.2 3.64.49 8.51zM353.24 96l-2.06 3.79L340.1 120l-9.32 17.06-58.69 202.17-2.88 9.9-.53 1.84-.26.93h-41.73v21.35l.12.26v.1l6 13.05 8 17.47 3.38 7.37H124.44l3.38-7.37 8-17.47 6-13.15.11-.26V351.9h-41.7l-.23-.9-.53-1.84-2.87-9.9L37.9 137.1 28.59 120 17.5 99.74 15.43 96l-1-1.9H130l-.66 1.75-1.34 3.43-7.16 18.64-5.07 13.22L133.91 194l8.09-24.12V50.69l-.09-.22-6.48-16.92L129 16.8l-2.71-7.07H242.4l-2.72 7.07-6.42 16.75-6.48 16.92-.09.22v119.09l8.09 24.22 18.12-62.86-5.07-13.22-7.15-18.64-1.34-3.48-.67-1.75h115.61L353.24 96z"/><path d="M209.15 351.8l-.25-.78-.59-1.76-3.1-9.43-4.28-13v52.04l.75 1.63 2.39 5.24h-39.49l-12.82 8.22h65.13l-7.74-16.88zM201.47 44.51l-.54 1.42v46.71l.08.23 8.14 24.38v-69.8l7.74-20.18-11.96 8.23zM88.71 127.07l-1.1 2.86.86 2.95 35.42 122.83 8.15 28.27.64-30.81-35.42-122.83 7.18-18.72-13.31 9.15zM200.93 177l8.22 24.61 17.54 52.52.65 1.93 9.32 27.92-.65-30.81-9.32-27.92-17.54-52.52-8.22-24.62-16.59-49.67v28.89zM175.65 217.35l-7.92 24.08-8.23 25-17.54 53.3-1.79 5.45h-19.83l-6.88 9.16h33.33l12.71-38.63 8.23-24.98 16.63-50.52-.01-29.28zM306.42 125.96l-.48.87-.27.96-57.32 197.39h-19.83l-1.83 2.53-4.79 6.63h33.32l59.23-204 10.22-18.72-15.42 9.15z"/></g><g fill="#006F51"><path d="M347.8 94.05H238.67l.67 1.75 1.34 3.48 7.15 18.64 5.07 13.22L234.78 194l-8.09-24.22V50.69l.09-.22 6.48-16.92 6.42-16.75 2.72-7.07H126.26L129 16.8l6.42 16.75 6.48 16.92.09.22v119.19L133.91 194l-18.13-62.86 5.07-13.22L128 99.28l1.34-3.48.66-1.75H14.39l1 1.9 2.07 3.79L28.59 120l9.31 17.1 58.7 202.13 2.87 9.9.53 1.87.26.93H142v21.35l-.11.26-6 13.15-8 17.47-3.38 7.37h119.71l-3.38-7.37-8-17.47-6-13.05v-.1l-.12-.26V351.9h41.73l.26-.93.53-1.84 2.88-9.9 58.66-202.13 9.32-17.1 11.08-20.3 2.06-3.7 1-1.9h-6.44v-.05zm-196-66.78h65.13l-7.74 20.18v69.8L201 92.87l-.08-.23L188 53.88l-2.43-7.28-1.23-3.6-1.22 3.63-2.42 7.28-13 38.84v.16l-8.18 24.47V47.45l-7.72-20.18zm0 366.69l7.74-16.88V351.9l.29-.87.58-1.77 3.11-9.43 4.24-12.9 16.62-50.5 16.58 50.4 4.28 13 3.1 9.43.58 1.77.26.77v25.28l7.71 16.92-65.09-.04zm162.65-263.62l-59.23 204H221.9l-12.75-38.76-8.22-25-16.57-50.38-16.63 50.51-8.23 25-12.71 38.63h-33.33l-59.22-204L44 111.62h60.43l-7.18 18.72 35.42 122.83 9.33-27.81 17.54-52.54 8.23-24.63 16.61-49.75 16.59 49.67 8.22 24.62 17.54 52.52 9.27 27.92 35.41-122.83-7.18-18.72h60.43l-10.21 18.72z"/><path d="M231.27 359.1h3.26v9.81h2.75v-9.81h3.3v-2.3h-9.31zM250.83 356.8l-1.17 3.64-.12.38c-.4 1.35-.81 2.95-1.15 4.36h-.06c-.26-1.43-.64-2.95-1-4.33l-.12-.41-1.07-3.64h-3.65l-.23 3.64-.54 8.47h2.54l.21-4.6c.08-1.17.12-2.54.17-3.87v-1.14c.07.37.14.76.22 1.14.26 1.24.57 2.5.87 3.6l1.3 4.68h2.14l1.47-4.74c.35-1.07.73-2.32 1-3.54.11-.39.2-.77.3-1.14h.06v1.14c0 1.37.06 2.7.1 3.83l.18 4.64h2.68l-.47-8.47-.2-3.64h-3.46z"/></g></g></svg>